<svg width="6" height="10" viewBox="0 0 6 10" fill="none" xmlns="http://www.w3.org/2000/svg">
<path d="M5.08455 10C5.46223 10 5.75536 9.70688 5.75536 9.33484C5.75536 9.14882 5.68207 8.97971 5.55242 8.85006L1.60654 4.99436L5.55242 1.14994C5.68207 1.02029 5.75536 0.845547 5.75536 0.665163C5.75536 0.293123 5.46223 0 5.08455 0C4.90417 0 4.74634 0.0676437 4.62232 0.191657L0.236753 4.47576C0.0789177 4.62232 0 4.80271 0 5C0 5.19729 0.0789177 5.3664 0.231116 5.5186L4.61669 9.80834C4.74634 9.93236 4.90417 10 5.08455 10Z" fill="#6E7883"/>
</svg>
